<svg xmlns="http://www.w3.org/2000/svg" viewBox="0 0 120 128">
  <!-- Flame — drawn first so anvil covers the base -->
  <path d="
    M 60,90
    C 56,88 36,80 38,62
    C 40,51 46,48 44,39
    C 42,30 46,20 50,24
    C 49,30 50,39 54,42
    C 54,34 56,23 60,8
    C 64,23 66,34 66,42
    C 70,39 71,30 70,24
    C 74,20 78,30 76,39
    C 74,48 80,51 82,62
    C 84,80 64,88 60,90
    Z"
    fill="#D4342B"/>

  <!-- Heart — white, sits in the upper flame above anvil -->
  <path d="
    M 60,72
    C 56,68 48,62 48,56
    C 48,52 51,50 54.5,52
    C 56.5,53 58.5,56 60,58
    C 61.5,56 63.5,53 65.5,52
    C 69,50 72,52 72,56
    C 72,62 64,68 60,72
    Z"
    fill="white"/>

  <!-- Anvil — drawn last, covers flame base -->
  <path d="
    M 8,96
    L 24,84
    L 96,84
    L 96,120
    L 74,120
    L 74,108
    L 46,108
    L 46,120
    L 24,120
    L 24,96
    Z"
    fill="#265C5C"/>
</svg>
